# xmcd
# Copyright (C) 1995-1998 Ti Kan
#
# Track frame offsets:
#       150
#       19125
#       39075
#       55585
#       70275
#       87975
#       104410
#       120375
#       132257
#       152325
#       169950
#       186225
#       204375
#       219825
#       233025
#       251260
#       269410
#       289575
#       303310
#       323550
#
# Disc length: 4497 seconds
#
# Revision: 0
# Processed by: cddbd v1.4PL0 Copyright (c) Steve Scherf et al.
# Submitted via: CD-Transfer v1.0
#
DISCID=07118f14
DTITLE=Various Artist - Frohes Fest
DYEAR=1900
DGENRE=
TTITLE0=Patent Ochsner   Los
TTITLE1=Gotthard   Merry X-Mas
TTITLE2=Subzonic   Wiehnachzong
TTITLE3=Kisha   As Long As There's Christmas
TTITLE4=Michael von der Heide   Paradies
TTITLE5=Florian Ast   I Arm
TTITLE6=G.Punkt   I bi ar Wiehnacht bi Dir
TTITLE7=Betty Legler   The Elf
TTITLE8=DJ Bobo    It's Time For Christmas
TTITLE9=Phon Roll    Nothing But A Child
TTITLE10=Mario Capitanio    Hüt isch Wiehnacht
TTITLE11=Natacha    Schwäfelhölzli
TTITLE12=Polo Hofer    Dusse schneit's
TTITLE13=Eric St. Michaels    Feeling Of Christmas
TTITLE14=Bo Katzman    Happy X-Mas
TTITLE15=Sina    Puppiliächt
TTITLE16=Toni Vescoli    Schneemaa
TTITLE17=Pfannestil Chammer Sexdeet    Samichlaus
TTITLE18=Linard Bardill    Chrippüespiel
TTITLE19=Nubya    Silent Night 
EXTD=
EXTT0=
EXTT1=
EXTT2=
EXTT3=
EXTT4=
EXTT5=
EXTT6=
EXTT7=
EXTT8=
EXTT9=
EXTT10=
EXTT11=
EXTT12=
EXTT13=
EXTT14=
EXTT15=
EXTT16=
EXTT17=
EXTT18=
EXTT19=
PLAYORDER=
